<svg xmlns="http://www.w3.org/2000/svg" viewBox="0 0 72 72"><defs><style>.cls-1{fill:#2d2d30;}.cls-2{fill:#d9ccbc;}.cls-3{fill:#ebe5dd;}.cls-4{fill:#ffa733;}.cls-5{fill:#ffb655;}.cls-6{fill:#781900;}.cls-7{fill:#891c00;}.cls-8{fill:#5eac24;}.cls-9{fill:#7ed63e;}.cls-10{fill:#830018;}.cls-11{fill:#a5001e;}.cls-12{fill:#c70024;}.cls-13{fill:none;}</style></defs><title>bento</title><g id="レイヤー_2" data-name="レイヤー 2"><g id="レイヤー_1-2" data-name="レイヤー 1"><path class="cls-1" d="M57,23.4V48.6a1.49,1.49,0,0,1-1.49,1.49H18.41a1.49,1.49,0,0,1-1.49-1.49V23.4a1.49,1.49,0,0,1,1.49-1.49H55.47A1.49,1.49,0,0,1,57,23.4Z"/><path class="cls-2" d="M39.2,39.23v7.42a1,1,0,0,1-1,1H19.93a1,1,0,0,1-1-1V39.23a1,1,0,0,1,1-1h18.3A1,1,0,0,1,39.2,39.23Z"/><path class="cls-3" d="M39.2,39.23v7.42a1,1,0,0,1-1,1H21.86a1,1,0,0,1-1-1V39.23a1,1,0,0,1,1-1H38.23A1,1,0,0,1,39.2,39.23Z"/><path class="cls-4" d="M35,25.19v7.68a1.26,1.26,0,1,1-2.51,0V25.19a1.26,1.26,0,0,1,1.25-1.26,1,1,0,0,1,.36.06,1.28,1.28,0,0,1,.53.31A1.26,1.26,0,0,1,35,25.19Z"/><path class="cls-4" d="M39.85,25.19v7.68a1.26,1.26,0,1,1-2.52,0V25.19a1.27,1.27,0,0,1,1.26-1.26,1,1,0,0,1,.35.06,1.24,1.24,0,0,1,.91,1.2Z"/><path class="cls-5" d="M35,25.19v7.59a1.25,1.25,0,0,1-.9-1.2V24a1.28,1.28,0,0,1,.53.31A1.26,1.26,0,0,1,35,25.19Z"/><path class="cls-5" d="M39.85,25.19v7.59a1.24,1.24,0,0,1-.91-1.2V24a1.24,1.24,0,0,1,.91,1.2Z"/><path class="cls-6" d="M54.21,24.9v2.18a1,1,0,0,1-1,1h-10a1,1,0,0,1-1-1V24.9a1,1,0,0,1,1-1h10A1,1,0,0,1,54.21,24.9Z"/><path class="cls-6" d="M54.21,31v2.17a1,1,0,0,1-1,1h-10a1,1,0,0,1-1-1V31a1,1,0,0,1,1-1h10A1,1,0,0,1,54.21,31Z"/><path class="cls-7" d="M54.21,24.9v2.18a1,1,0,0,1-1,1H45.3a1,1,0,0,1-1-1V24.9a1,1,0,0,1,1-1h7.94A1,1,0,0,1,54.21,24.9Z"/><path class="cls-7" d="M54.21,31v2.17a1,1,0,0,1-1,1H45.3a1,1,0,0,1-1-1V31a1,1,0,0,1,1-1h7.94A1,1,0,0,1,54.21,31Z"/><path class="cls-8" d="M51.64,38.87A1.3,1.3,0,0,1,51,40L46,42.89l-.74.43a1.27,1.27,0,1,1-1.27-2.2l5.8-3.34a1.27,1.27,0,0,1,1.73.46,1.52,1.52,0,0,1,.16.45A1.09,1.09,0,0,1,51.64,38.87Z"/><path class="cls-9" d="M51.64,38.87A1.3,1.3,0,0,1,51,40L46,42.89a1.27,1.27,0,0,1,.62-1.28l5.06-2.92A1.09,1.09,0,0,1,51.64,38.87Z"/><path class="cls-8" d="M55.25,42.16a1.25,1.25,0,0,1-.13.57L53,47l0,.08a1.27,1.27,0,1,1-2.26-1.14l2.15-4.33A1.26,1.26,0,0,1,54.56,41a1.11,1.11,0,0,1,.24.16A1.26,1.26,0,0,1,55.25,42.16Z"/><path class="cls-9" d="M55.25,42.16a1.25,1.25,0,0,1-.13.57L53,47a1.26,1.26,0,0,1-.31-1.55l2.11-4.24A1.26,1.26,0,0,1,55.25,42.16Z"/><path class="cls-10" d="M48.53,46.62a1.8,1.8,0,0,1-.1.57A1.72,1.72,0,1,1,46.23,45a1.61,1.61,0,0,1,.58-.1A1.72,1.72,0,0,1,48.53,46.62Z"/><path class="cls-11" d="M48.53,46.62a1.8,1.8,0,0,1-.1.57,1.56,1.56,0,0,1-.57.1,1.72,1.72,0,0,1-1.72-1.72,1.79,1.79,0,0,1,.09-.57,1.61,1.61,0,0,1,.58-.1A1.72,1.72,0,0,1,48.53,46.62Z"/><path class="cls-11" d="M27.45,28.88a4.18,4.18,0,0,1-3,4,4.14,4.14,0,0,1-1.17.17,4.2,4.2,0,0,1,0-8.39,4.14,4.14,0,0,1,1.17.17A4.2,4.2,0,0,1,27.45,28.88Z"/><path class="cls-12" d="M27.45,28.88a4.18,4.18,0,0,1-3,4,4.19,4.19,0,0,1,0-8A4.2,4.2,0,0,1,27.45,28.88Z"/><path class="cls-2" d="M34.12,43.45a3.09,3.09,0,0,1,3.09-2.86.36.36,0,0,1,.39.42,3.1,3.1,0,0,1-3.1,2.85A.37.37,0,0,1,34.12,43.45Z"/><path class="cls-2" d="M25.78,40.93a3.11,3.11,0,0,1,1.83,3.8.37.37,0,0,1-.52.25,3.1,3.1,0,0,1-1.82-3.8A.38.38,0,0,1,25.78,40.93Z"/><path class="cls-2" d="M20.94,43.54a2.47,2.47,0,0,1,2-2.72.31.31,0,0,1,.37.29,2.48,2.48,0,0,1-2,2.71A.31.31,0,0,1,20.94,43.54Z"/><path class="cls-2" d="M30.14,43.08a2.47,2.47,0,0,1,2.31,2.48.31.31,0,0,1-.36.31,2.47,2.47,0,0,1-2.29-2.49A.3.3,0,0,1,30.14,43.08Z"/><path class="cls-12" d="M55.47,21.91H18.41a1.49,1.49,0,0,0-1.49,1.49V48.6a1.49,1.49,0,0,0,1.49,1.49H55.47A1.49,1.49,0,0,0,57,48.6V23.4A1.49,1.49,0,0,0,55.47,21.91Zm.28,1.49V35.13a.26.26,0,0,1-.26.27H30.81a.43.43,0,0,1-.43-.43V23.38a.26.26,0,0,1,.26-.26H55.47A.27.27,0,0,1,55.75,23.4Zm-37.34-.28h10.5a.26.26,0,0,1,.26.26V35a.43.43,0,0,1-.43.43H18.39a.27.27,0,0,1-.26-.27V23.4A.28.28,0,0,1,18.41,23.12ZM18.13,48.6V36.87a.27.27,0,0,1,.26-.27H40.72a.43.43,0,0,1,.42.43V48.62a.25.25,0,0,1-.26.26H18.41A.28.28,0,0,1,18.13,48.6Zm37.34.28H42.62a.26.26,0,0,1-.27-.26V37a.44.44,0,0,1,.43-.43H55.49a.26.26,0,0,1,.26.27V48.6A.27.27,0,0,1,55.47,48.88Z"/><circle class="cls-13" cx="36" cy="36" r="36"/></g></g></svg>