<svg xmlns="http://www.w3.org/2000/svg" viewBox="0 0 72 72"><defs><style>.cls-1{fill:#884d00;}.cls-2{fill:#aa6100;}.cls-3{fill:#ffa733;}.cls-4{fill:#ffb655;}.cls-5{fill:#eebf00;}.cls-6{fill:#ffd422;}.cls-7{fill:#6dc82a;}.cls-8{fill:#7ed63e;}.cls-9{fill:#ff3501;}.cls-10{fill:#ff5023;}.cls-11{fill:#fff5cc;}.cls-12{fill:none;}</style></defs><title>burger</title><g id="レイヤー_2" data-name="レイヤー 2"><g id="レイヤー_1-2" data-name="レイヤー 1"><path class="cls-1" d="M52.38,39.38a2.48,2.48,0,0,1-2.47,2.46H21.34a2.47,2.47,0,0,1-2.47-2.46,2.36,2.36,0,0,1,.23-1,2.39,2.39,0,0,1,.5-.72,2.42,2.42,0,0,1,1.74-.72H49.91a2.47,2.47,0,0,1,2.25,1.44A2.5,2.5,0,0,1,52.38,39.38Z"/><path class="cls-2" d="M52.16,38.35a2.66,2.66,0,0,1-.51.73,2.46,2.46,0,0,1-1.74.72H21.34a2.45,2.45,0,0,1-2.24-1.45,2.39,2.39,0,0,1,.5-.72,2.42,2.42,0,0,1,1.74-.72H49.91A2.47,2.47,0,0,1,52.16,38.35Z"/><path class="cls-3" d="M54.5,43.84A8.15,8.15,0,0,1,50.65,51a17.06,17.06,0,0,1-9.31,2.34H29.91c-7.27,0-13.16-3.09-13.16-9.45a2.15,2.15,0,0,1,.25-1,2.23,2.23,0,0,1,.55-.68,2.91,2.91,0,0,1,1.92-.7H51.78a2.77,2.77,0,0,1,2.47,1.38A2.15,2.15,0,0,1,54.5,43.84Z"/><path class="cls-4" d="M54.25,42.84a8.17,8.17,0,0,1-3.6,5,17.06,17.06,0,0,1-9.31,2.35H29.91c-6.4,0-11.72-2.4-12.91-7.31a2.23,2.23,0,0,1,.55-.68,2.91,2.91,0,0,1,1.92-.7H51.78A2.77,2.77,0,0,1,54.25,42.84Z"/><path class="cls-5" d="M46.12,35.87l-6.38,6.39a3,3,0,0,1-.52.42,3.46,3.46,0,0,1-4.4-.42l-6.38-6.39Z"/><path class="cls-6" d="M46.12,35.87l-6.38,6.39a3,3,0,0,1-.52.42,3.54,3.54,0,0,1-1.33-.83l-6-6Z"/><path class="cls-7" d="M53.78,36.76a2.94,2.94,0,0,1-.17,1c-.47,1.31-1.73,1.82-2.7,1.1L49.73,38a1.64,1.64,0,0,0-2.45.58l-.05.08a1.66,1.66,0,0,1-2.37.65l-2.63-1.72a1.57,1.57,0,0,0-1.91.11l-2.1,1.71a1.57,1.57,0,0,1-2,.06l-2.4-1.78a1.57,1.57,0,0,0-2,0l-2.19,1.73a1.56,1.56,0,0,1-1.93.07l-2.83-2a1.55,1.55,0,0,0-1.79,0l-2.65,1.72a2.75,2.75,0,0,1-2.61-1.06,3,3,0,0,1-.24-2.33,2,2,0,0,1,1.78-1.54H51.87a2,2,0,0,1,1.78,1.54A2.9,2.9,0,0,1,53.78,36.76Z"/><path class="cls-8" d="M53.65,35.87s0,.07,0,.11c-.47,1.31-1.73,1.82-2.7,1.1l-1.18-.87a1.64,1.64,0,0,0-2.45.58l-.05.08a1.65,1.65,0,0,1-2.37.64L42.23,35.8a1.57,1.57,0,0,0-1.91.11l-2.1,1.71a1.57,1.57,0,0,1-2,.06l-2.4-1.78a1.58,1.58,0,0,0-2,0l-2.19,1.74a1.56,1.56,0,0,1-1.93.07l-2.83-2a1.55,1.55,0,0,0-1.79,0l-2.65,1.72a2.75,2.75,0,0,1-2.61-1.06,2.61,2.61,0,0,1-.24-.54,2,2,0,0,1,1.78-1.54H51.87A2,2,0,0,1,53.65,35.87Z"/><path class="cls-9" d="M53.13,32.75a2.59,2.59,0,0,1-.1.74,2.47,2.47,0,0,1-2.38,1.79c-4.43,0-16.25-.1-18,0H32.5c-2.25.08-2.76.45-2.76,1.64v4.39a.82.82,0,0,1-.82.82.82.82,0,0,0-.82.82v1.91a2.53,2.53,0,0,1-.06.56,2.4,2.4,0,0,1-2.33,1.83h-.06a2.33,2.33,0,0,1-2.33-2.34V41.41a1,1,0,0,1,1-1,1,1,0,0,0,1-1V36.88a1.61,1.61,0,0,0-1.61-1.6h-3a2.51,2.51,0,0,1-2.52-2.43,2.47,2.47,0,0,1,2.48-2.52h30A2.51,2.51,0,0,1,53.13,32.75Z"/><path class="cls-10" d="M53.13,32.75a2.59,2.59,0,0,1-.1.74c-4.69,0-15.91-.1-17.65-.05-2.35.08-2.88.43-2.88,1.65v.15c-2.25.08-2.76.45-2.76,1.64v4.39a.82.82,0,0,1-.82.82.82.82,0,0,0-.82.82v1.91a2.53,2.53,0,0,1-.06.56,2.33,2.33,0,0,1-2-2.3l0-3.46a.94.94,0,0,1,.28-.68,1,1,0,0,1,.68-.28,1,1,0,0,0,1-1V35.09a1.6,1.6,0,0,0-1.6-1.6h-3A2.47,2.47,0,0,1,21,30.33H50.6A2.51,2.51,0,0,1,53.13,32.75Z"/><path class="cls-5" d="M39,27.81l-5.48,5.48a4.72,4.72,0,0,1-1.88,1.17,4.87,4.87,0,0,1-5-1.17l-5.48-5.48Z"/><path class="cls-6" d="M39,27.81l-5.48,5.48a4.72,4.72,0,0,1-1.88,1.17,4.72,4.72,0,0,1-1.88-1.17l-5.48-5.48Z"/><path class="cls-3" d="M54.5,28.58v.12A2,2,0,0,1,53.9,30a2,2,0,0,1-1.44.6H18.79a2,2,0,0,1-2-2,7,7,0,0,1,2.84-5.66,15.81,15.81,0,0,1,5-2.56,40.54,40.54,0,0,1,11-1.65S54.5,18.61,54.5,28.58Z"/><path class="cls-4" d="M54.5,28.58v.12H22.93a2,2,0,0,1-2-2A7.05,7.05,0,0,1,23.74,21a9.13,9.13,0,0,1,.86-.64,40.54,40.54,0,0,1,11-1.65S54.5,18.61,54.5,28.58Z"/><path class="cls-11" d="M45.77,22.28a.86.86,0,1,1-1.25,1.18c-.33-.35-.93-1.55-.59-1.87S45.44,21.93,45.77,22.28Z"/><path class="cls-11" d="M41.2,26.54a.86.86,0,0,1-1.61.62c-.18-.45-.28-1.79.17-2S41,26.1,41.2,26.54Z"/><path class="cls-11" d="M36.49,23a.87.87,0,0,1-1.73,0c0-.48.39-1.76.87-1.76S36.49,22.51,36.49,23Z"/><path class="cls-11" d="M31.74,27.08a.86.86,0,1,1-1.67-.43c.12-.46.82-1.61,1.28-1.49S31.86,26.62,31.74,27.08Z"/><path class="cls-11" d="M27,23.32a.87.87,0,0,1-1.56-.75c.21-.43,1.12-1.42,1.55-1.21S27.2,22.89,27,23.32Z"/><circle class="cls-12" cx="36" cy="36" r="36"/></g></g></svg>