<svg xmlns="http://www.w3.org/2000/svg" viewBox="0 0 72 72"><defs><style>.cls-1{fill:#ffeca7;}.cls-2{fill:#d3ba2a;}.cls-3{fill:#eee045;}.cls-4{fill:#333;}.cls-5{fill:#ef7f72;}.cls-6{fill:#e8383b;}.cls-7{fill:#e95947;}.cls-8{fill:#a4d4a0;}.cls-9{fill:#419b46;}.cls-10{fill:#65bc49;}.cls-11{fill:#1c2d6b;}.cls-12{fill:none;}</style></defs><title>chahan</title><g id="レイヤー_2" data-name="レイヤー 2"><g id="レイヤー_1-2" data-name="レイヤー 1"><path class="cls-1" d="M36.23,24.23A19.42,19.42,0,0,0,16.81,43.65h13C29.83,32.93,32.69,24.23,36.23,24.23Z"/><path class="cls-2" d="M36.23,24.23c3.53,0,6.39,8.7,6.39,19.42h13A19.43,19.43,0,0,0,36.23,24.23Z"/><path class="cls-3" d="M36.23,24.23c-3.54,0-6.4,8.7-6.4,19.42H42.62C42.62,32.93,39.76,24.23,36.23,24.23Z"/><path class="cls-4" d="M55.65,44.34H16.81a.69.69,0,0,1-.69-.69,20.11,20.11,0,0,1,40.21,0A.69.69,0,0,1,55.65,44.34ZM17.5,43H55A18.74,18.74,0,0,0,17.5,43Z"/><path class="cls-5" d="M54.05,40.68c0-2.77.71-5,1.6-5a5,5,0,1,0,0,10.05C54.76,45.71,54.05,43.46,54.05,40.68Z"/><path class="cls-6" d="M55.65,35.66c.88,0,1.6,2.25,1.6,5s-.72,5-1.6,5a5,5,0,0,0,0-10.05Z"/><path class="cls-7" d="M57.25,40.68c0-2.77-.72-5-1.6-5s-1.6,2.25-1.6,5,.71,5,1.6,5S57.25,43.46,57.25,40.68Z"/><path class="cls-4" d="M55.65,46.4a5.72,5.72,0,1,1,5.71-5.72A5.73,5.73,0,0,1,55.65,46.4Zm0-10.06A4.34,4.34,0,1,0,60,40.68,4.35,4.35,0,0,0,55.65,36.34Z"/><path class="cls-8" d="M28.34,45.4V43.65H11.55a4.11,4.11,0,0,0,4.11,4.12H30.71A2.37,2.37,0,0,1,28.34,45.4Z"/><path class="cls-9" d="M45,43.65V45.4a2.37,2.37,0,0,1-2.37,2.37H57.7a4.11,4.11,0,0,0,4.11-4.12Z"/><path class="cls-10" d="M45,45.4V43.65H28.34V45.4a2.37,2.37,0,0,0,2.37,2.37H42.65A2.37,2.37,0,0,0,45,45.4Z"/><path class="cls-11" d="M57.7,48.45h-42a4.8,4.8,0,0,1-4.79-4.8.68.68,0,0,1,.68-.68H61.81a.69.69,0,0,1,.69.68A4.8,4.8,0,0,1,57.7,48.45ZM12.31,44.34a3.42,3.42,0,0,0,3.35,2.74h42a3.43,3.43,0,0,0,3.36-2.74Z"/><path class="cls-10" d="M14.75,43.65V40.23L33,42.05v1.6Z"/><path class="cls-4" d="M33,44.34H14.75a.69.69,0,0,1-.69-.69V40.23a.7.7,0,0,1,.23-.51.73.73,0,0,1,.53-.18L33.1,41.37a.68.68,0,0,1,.61.68v1.6A.68.68,0,0,1,33,44.34ZM15.44,43h16.9v-.3L15.44,41Z"/><path class="cls-10" d="M19.24,43.65v-3l18.28-2.59v1.6Z"/><path class="cls-11" d="M19.24,44.34a.7.7,0,0,1-.43-.15.69.69,0,0,1-.25-.54v-3a.68.68,0,0,1,.59-.68l18.27-2.59a.68.68,0,0,1,.55.16.69.69,0,0,1,.24.52v1.6a.69.69,0,0,1-.54.67l-18.28,4Zm.69-3.07V42.8l16.91-3.66v-.26Z"/><path class="cls-11" d="M29.56,31.06a.82.82,0,0,1-.31-.07l-1.83-.92a.69.69,0,0,1-.3-.92.68.68,0,0,1,.92-.3l1.82.91a.69.69,0,0,1-.3,1.3Z"/><path class="cls-11" d="M46.21,35.17a.67.67,0,0,1-.58-.32.69.69,0,0,1,.21-1l1.74-1.08A.68.68,0,1,1,48.3,34l-1.73,1.09A.68.68,0,0,1,46.21,35.17Z"/><path class="cls-11" d="M46,41.4a.8.8,0,0,1-.26,0l-1.89-.76a.7.7,0,0,1-.38-.9.69.69,0,0,1,.89-.38l1.9.77a.69.69,0,0,1,.38.89A.71.71,0,0,1,46,41.4Z"/><path class="cls-11" d="M35.84,34.78a.69.69,0,0,1-.69-.68l0-2a.68.68,0,0,1,.68-.69.67.67,0,0,1,.69.67l0,2.05a.67.67,0,0,1-.67.69Z"/><path class="cls-11" d="M24.67,37.69a.69.69,0,0,1-.5-.21l-.85-.91a.69.69,0,0,1,1-.94l.85.91a.68.68,0,0,1-.5,1.15Z"/><circle class="cls-12" cx="36" cy="36" r="36"/></g></g></svg>