<svg xmlns="http://www.w3.org/2000/svg" viewBox="0 0 72 72"><defs><style>.cls-1{fill:#eeaf4b;}.cls-2{fill:#fcdf76;}.cls-3{fill:#f4c44e;}.cls-4{fill:none;}</style></defs><title>fondue</title><g id="レイヤー_2" data-name="レイヤー 2"><g id="レイヤー_1-2" data-name="レイヤー 1"><path class="cls-1" d="M54,41.88a1.86,1.86,0,0,1,1.28-.61,2.13,2.13,0,0,1,.56,0,2.47,2.47,0,0,1,.47.11,2.26,2.26,0,0,1,.43.17V39.75a4.91,4.91,0,0,0-1.91-3.88L40.65,22.5a1.87,1.87,0,0,1-1.81.27,3.57,3.57,0,0,1-2.43-3.18,2,2,0,0,1,.2-.91l-2.42-2.29a5.26,5.26,0,0,0-5.09-1l-12,5.8a3,3,0,0,0-1.76,2.79h0V36.73a2.68,2.68,0,0,1,1.24.08,4.18,4.18,0,0,1,2.82,3.69,2,2,0,0,1-2.82,2,3.76,3.76,0,0,1-1.24-.68v1.75a3,3,0,0,0,2.26,2.9L53,56.85A3,3,0,0,0,56.69,54V47.19h0A3.87,3.87,0,0,1,54.61,46l0,0c-.13-.14-.25-.29-.37-.44a1.4,1.4,0,0,0-.1-.16c-.08-.12-.16-.24-.23-.37s-.09-.21-.14-.31-.08-.17-.11-.26a3.29,3.29,0,0,1-.15-.6,2.38,2.38,0,0,1,0-.59,2.3,2.3,0,0,1,.24-1A2.14,2.14,0,0,1,54,41.88Z"/><path class="cls-2" d="M55.79,41.29a2.94,2.94,0,0,1,.9.28V39.75a3,3,0,0,0-2.36-2.91L38.78,32.2a2.29,2.29,0,0,1,0,.25,1.72,1.72,0,0,1-2.43,1.68A3.58,3.58,0,0,1,33.94,31c0-.06,0-.12,0-.18L16.88,25.68A1.85,1.85,0,0,1,15.36,24l0,0V36.73a2.55,2.55,0,0,1,1.24.08,4.18,4.18,0,0,1,2.82,3.69,2,2,0,0,1-2.82,2,3.76,3.76,0,0,1-1.24-.68v1.75a3,3,0,0,0,2.26,2.9L53,56.85A3,3,0,0,0,56.69,54V47.19a4.21,4.21,0,0,1-3.22-3.33A2,2,0,0,1,55.79,41.29Z"/><path class="cls-3" d="M36.26,41A2.36,2.36,0,0,1,33,43.32,4.9,4.9,0,0,1,29.63,39,2.37,2.37,0,0,1,33,36.69,4.9,4.9,0,0,1,36.26,41Z"/><path class="cls-1" d="M33,36.69a2.42,2.42,0,0,0-3,1.05,5,5,0,0,0,3,2.93,2.4,2.4,0,0,0,3-1.05A5,5,0,0,0,33,36.69Z"/><path class="cls-3" d="M50,45.52a1.65,1.65,0,0,1-2.32,1.6,3.43,3.43,0,0,1-2.32-3,1.65,1.65,0,0,1,2.32-1.6A3.43,3.43,0,0,1,50,45.52Z"/><path class="cls-1" d="M27.25,43.9a1.65,1.65,0,0,1-2.32,1.6,3.43,3.43,0,0,1-2.32-3,1.65,1.65,0,0,1,2.32-1.6A3.43,3.43,0,0,1,27.25,43.9Z"/><path class="cls-1" d="M43.48,50.08a1.07,1.07,0,0,1-1.51,1,2.22,2.22,0,0,1-1.51-2,1.08,1.08,0,0,1,1.51-1A2.23,2.23,0,0,1,43.48,50.08Z"/><path class="cls-1" d="M42.9,40.44a1.08,1.08,0,0,1-1.51,1,2.23,2.23,0,0,1-1.51-2,1.07,1.07,0,0,1,1.51-1A2.22,2.22,0,0,1,42.9,40.44Z"/><path class="cls-3" d="M22.61,31.92A1.18,1.18,0,0,1,21,33.06a2.43,2.43,0,0,1-1.66-2.17A1.18,1.18,0,0,1,21,29.75,2.44,2.44,0,0,1,22.61,31.92Z"/><path class="cls-3" d="M38.8,32.45a1.72,1.72,0,0,1-2.43,1.68A3.58,3.58,0,0,1,33.94,31a1.73,1.73,0,0,1,2.43-1.68A3.59,3.59,0,0,1,38.8,32.45Z"/><circle class="cls-4" cx="36" cy="36" r="36"/></g></g></svg>