<svg xmlns="http://www.w3.org/2000/svg" viewBox="0 0 72 72"><defs><style>.cls-1{fill:#b9b9b9;}.cls-2{fill:#9c9c9c;}.cls-3{fill:#6b9777;}.cls-4{fill:#85bc94;}.cls-5{fill:#ea9d2d;}.cls-6{fill:#e4e4e2;}.cls-7{fill:#eac88f;}.cls-8{fill:#fbb540;}.cls-9{fill:#916f56;}.cls-10{fill:#cbcbcb;}.cls-11{fill:#aedee2;}.cls-12{fill:#e06661;}.cls-13{fill:#8d7761;}.cls-14{fill:#f9adb1;}.cls-15{fill:#9c775c;}.cls-16{fill:none;}</style></defs><title>izakaya</title><g id="レイヤー_2" data-name="レイヤー 2"><g id="レイヤー_1-2" data-name="レイヤー 1"><path class="cls-1" d="M48.13,54.19h6.06V58H48.13Z"/><path class="cls-2" d="M48.13,55h6.06v1.51H48.13Z"/><path class="cls-3" d="M26.15,58H18.57a3,3,0,0,1-3-3V37.79a7.51,7.51,0,0,1,.8-3.39l3.74-7.5V14.78a.76.76,0,0,1,.76-.76h3a.76.76,0,0,1,.76.76V26.9l3.75,7.5a7.65,7.65,0,0,1,.8,3.39V55A3,3,0,0,1,26.15,58Z"/><path class="cls-4" d="M24.63,24.63H20.08V26.9l-3.74,7.5a7.51,7.51,0,0,0-.8,3.39V55a3,3,0,0,0,3,3h7.58a3,3,0,0,0,3-3V37.79a7.65,7.65,0,0,0-.8-3.39l-3.75-7.5Z"/><path class="cls-5" d="M24.63,18.57H20.08V14.78a.76.76,0,0,1,.76-.76h3a.76.76,0,0,1,.76.76Z"/><path class="cls-1" d="M20.08,18.57h4.55v3H20.08Z"/><path class="cls-6" d="M15.54,38.27H29.18V53.43H15.54Z"/><path class="cls-7" d="M51.71,26.46a1.14,1.14,0,0,0-1.39-.74,1.13,1.13,0,0,0-2.26,0,1.14,1.14,0,0,0-1.34.76,1.13,1.13,0,0,0,.64,1.4,1.14,1.14,0,0,0,1.83,1.33A1.14,1.14,0,0,0,51,27.88,1.14,1.14,0,0,0,51.71,26.46Z"/><path class="cls-8" d="M45.8,16.9a1.14,1.14,0,0,0-1.39-.74,1.14,1.14,0,0,0-2.27,0,1.14,1.14,0,0,0-.7,2.16,1.13,1.13,0,0,0,.3,1.51,1.15,1.15,0,0,0,1.54-.18,1.14,1.14,0,0,0,1.83-1.33A1.15,1.15,0,0,0,45.8,16.9Z"/><path class="cls-6" d="M41.37,40.48l-.21-.57A5.31,5.31,0,0,1,41,36.59l1-3.62H33l1,3.62a5.24,5.24,0,0,1-.13,3.32l-.21.57a22.63,22.63,0,0,0-1.45,8V55a3,3,0,0,0,3,3h4.55a3,3,0,0,0,3-3V48.46A22.63,22.63,0,0,0,41.37,40.48Z"/><path class="cls-9" d="M40.55,39H34.48a.76.76,0,0,1,0-1.51h6.07a.76.76,0,1,1,0,1.51Z"/><path class="cls-10" d="M45.85,45.85H56.46v6.82A2.27,2.27,0,0,1,54.19,55H48.13a2.28,2.28,0,0,1-2.28-2.28Z"/><path class="cls-1" d="M48.88,49.64h-3a.76.76,0,0,1,0-1.51h3a.76.76,0,1,1,0,1.51Z"/><path class="cls-1" d="M47.37,52.67H45.85a.74.74,0,0,1-.75-.75.75.75,0,0,1,.75-.76h1.52a.76.76,0,0,1,.76.76A.75.75,0,0,1,47.37,52.67Z"/><path class="cls-1" d="M52.67,49.64h-.75a.76.76,0,1,1,0-1.51h.75a.76.76,0,1,1,0,1.51Z"/><path class="cls-1" d="M51.16,52.67H50.4a.75.75,0,0,1-.76-.75.76.76,0,0,1,.76-.76h.76a.76.76,0,0,1,.76.76A.75.75,0,0,1,51.16,52.67Z"/><path class="cls-11" d="M48.88,43.58a.76.76,0,0,1-.75-.76c0-.29-.13-.42-.5-.76a2.27,2.27,0,0,1,0-3.79c.38-.33.5-.46.5-.75a.76.76,0,1,1,1.51,0,2.42,2.42,0,0,1-1,1.89c-.38.33-.5.46-.5.76s.12.42.5.76a2.39,2.39,0,0,1,1,1.89A.76.76,0,0,1,48.88,43.58Z"/><path class="cls-11" d="M53.43,43.58a.76.76,0,0,1-.76-.76c0-.29-.12-.42-.49-.76a2.27,2.27,0,0,1,0-3.79c.37-.33.49-.46.49-.75a.76.76,0,0,1,1.52,0,2.4,2.4,0,0,1-1,1.89c-.38.33-.5.46-.5.76s.13.42.5.76a2.37,2.37,0,0,1,1,1.89A.76.76,0,0,1,53.43,43.58Z"/><path class="cls-11" d="M35.24,30.69a.75.75,0,0,1-.76-.75c0-.3-.12-.43-.49-.76a2.27,2.27,0,0,1,0-3.79c.37-.33.49-.46.49-.76a.76.76,0,1,1,1.52,0,2.41,2.41,0,0,1-1,1.9c-.38.33-.5.46-.5.75s.13.43.5.76a2.41,2.41,0,0,1,1,1.9A.75.75,0,0,1,35.24,30.69Z"/><path class="cls-11" d="M39.79,30.69a.75.75,0,0,1-.76-.75c0-.3-.12-.43-.5-.76a2.28,2.28,0,0,1,0-3.79c.38-.33.5-.46.5-.76a.76.76,0,0,1,1.52,0,2.41,2.41,0,0,1-1,1.9c-.38.33-.5.46-.5.75s.12.43.5.76a2.41,2.41,0,0,1,1,1.9A.75.75,0,0,1,39.79,30.69Z"/><path class="cls-12" d="M26.15,44.34a3,3,0,1,1-3-3A3,3,0,0,1,26.15,44.34Z"/><path class="cls-13" d="M26.15,50.4l-.19,0-3-.76a.75.75,0,0,1-.56-.53.73.73,0,0,1,.19-.74.75.75,0,0,1,.74-.2l3,.76a.76.76,0,0,1-.18,1.49Z"/><path class="cls-14" d="M23.67,47.22a1.13,1.13,0,0,0-1.39-.74,1.14,1.14,0,0,0-2.27,0,1.14,1.14,0,0,0-.7,2.15,1.14,1.14,0,0,0,.31,1.51A1.13,1.13,0,0,0,21.14,50,1.14,1.14,0,0,0,23,48.63,1.13,1.13,0,0,0,23.67,47.22Z"/><path class="cls-15" d="M36.8,44.34a.75.75,0,0,1-.72-.52,9,9,0,0,1-.2-5l.18-.71a.76.76,0,0,1,1.47.37l-.17.7a7.44,7.44,0,0,0,.16,4.18.78.78,0,0,1-.05.58.73.73,0,0,1-.43.38A1,1,0,0,1,36.8,44.34Z"/><path class="cls-15" d="M39.79,42.35a.73.73,0,0,1-.41-.12,9,9,0,0,1-2.86-2.94l-.37-.63a.76.76,0,0,1,.26-1,.76.76,0,0,1,1,.26l.38.63A7.5,7.5,0,0,0,40.2,41a.74.74,0,0,1,.32.85A.75.75,0,0,1,39.79,42.35Z"/><circle class="cls-16" cx="36" cy="36" r="36"/></g></g></svg>