<svg xmlns="http://www.w3.org/2000/svg" viewBox="0 0 72 72"><defs><style>.cls-1{fill:#ffc14f;}.cls-2{fill:#efa4cd;}.cls-3{fill:#f4c1dd;}.cls-4{fill:#35e298;}.cls-5{fill:#7af4ab;}.cls-6{fill:#c0694e;}.cls-7{fill:#c97e67;}.cls-8{fill:none;}</style></defs><title>oden</title><g id="レイヤー_2" data-name="レイヤー 2"><g id="レイヤー_1-2" data-name="レイヤー 1"><path class="cls-1" d="M15.71,56.15a2,2,0,0,1,0-2.79L44.43,24.58a2,2,0,1,1,2.79,2.79L18.5,56.15A2,2,0,0,1,15.71,56.15Z"/><path class="cls-2" d="M56.39,19.3l-2.56,9.57A3.19,3.19,0,0,1,48.5,30.3l-7-7A3.2,3.2,0,0,1,42.94,18l9.55-2.56a3.19,3.19,0,0,1,3.9,3.91Z"/><path class="cls-3" d="M56.39,19.3l-2.56,9.57a3.16,3.16,0,0,1-1.59,2l-6.79-6.8a3.2,3.2,0,0,1,1.43-5.35l8.81-2.36A3.17,3.17,0,0,1,56.39,19.3Z"/><path class="cls-4" d="M45,33.91a6.74,6.74,0,0,1-6.27,6.35,7.3,7.3,0,0,1-.81,0A6.73,6.73,0,1,1,45,33.91Z"/><path class="cls-5" d="M45,33.91a6.74,6.74,0,0,1-6.27,6.35,6.74,6.74,0,0,1,2.92-12.55A6.74,6.74,0,0,1,45,33.91Z"/><path class="cls-6" d="M34.82,47.3l-5.34,5.35-.49.49a2.74,2.74,0,0,1-3.89,0l-6.39-6.4a2.76,2.76,0,0,1,0-3.89L24.54,37a2.77,2.77,0,0,1,3.58-.27,2.61,2.61,0,0,1,.31.27l6.39,6.4A2.77,2.77,0,0,1,34.82,47.3Z"/><path class="cls-7" d="M34.82,47.3l-5.34,5.35a2.69,2.69,0,0,1-.32-.27L22.78,46a2.76,2.76,0,0,1,0-3.89l5.34-5.36a2.61,2.61,0,0,1,.31.27l6.39,6.4A2.77,2.77,0,0,1,34.82,47.3Z"/><circle class="cls-8" cx="36" cy="36" r="36"/></g></g></svg>