<svg xmlns="http://www.w3.org/2000/svg" viewBox="0 0 72 72"><defs><style>.cls-1{fill:#878787;}.cls-2{fill:none;}</style></defs><title>okonomi</title><g id="レイヤー_2" data-name="レイヤー 2"><g id="レイヤー_1-2" data-name="レイヤー 1"><path class="cls-1" d="M29,32.2c-4.43-3.48-7.06.68-8.07-.42-2.43-2.63-5.59-6-6.6-7.21a2,2,0,0,0-3.13-.09,2,2,0,0,0,.09,3.12c1.22,1,4.58,4.18,7.22,6.61,1.09,1-3.07,3.64.42,8.07,2.26,2.88,2.67,3.42,4.79,6L34.91,37C32.38,34.87,31.83,34.46,29,32.2ZM13.27,26.59a.72.72,0,1,1,0-1A.72.72,0,0,1,13.27,26.59Z"/><path class="cls-1" d="M53.12,42.28c3.48-4.43-.67-7.06.42-8.07,2.64-2.43,6-5.6,7.22-6.61a2.15,2.15,0,1,0-3-3c-1,1.21-4.17,4.58-6.6,7.21-1,1.1-3.64-3.06-8.07.42-2.88,2.26-3.43,2.67-6,4.8L48.33,48.24C50.45,45.7,50.86,45.16,53.12,42.28Zm5.61-15.69a.72.72,0,1,1,1,0A.72.72,0,0,1,58.73,26.59Z"/><circle class="cls-2" cx="36" cy="36" r="36"/></g></g></svg>