<svg xmlns="http://www.w3.org/2000/svg" viewBox="0 0 72 72"><defs><style>.cls-1{fill:#ccdce5;}.cls-2{fill:#ffc018;}.cls-3{fill:#e87425;}.cls-4{fill:#eb4042;}.cls-5{fill:#88bf40;}.cls-6{fill:none;}</style></defs><title>omlet</title><g id="レイヤー_2" data-name="レイヤー 2"><g id="レイヤー_1-2" data-name="レイヤー 1"><path class="cls-1" d="M58.82,36a22.5,22.5,0,1,1-22.5-22.5A22.5,22.5,0,0,1,58.82,36Z"/><path class="cls-2" d="M53,19.57c-4.06-4.06-14.74.05-23.87,9.17S15.89,48.55,20,52.61s14.74,0,23.86-9.18S57.05,23.62,53,19.57Z"/><path class="cls-2" d="M20.81,34.75l-1.44-1a55.22,55.22,0,0,1,15.05-15l.95,1.45A53.61,53.61,0,0,0,20.81,34.75Z"/><path class="cls-2" d="M18.91,37.92l-1.53-.82c.28-.51.57-1,.88-1.54l1.49.88C19.45,36.94,19.17,37.43,18.91,37.92Z"/><path class="cls-3" d="M48.33,23.57l1.22-1.22,1.23,1.22-1.23,1.22Z"/><path class="cls-3" d="M36.09,27.24,37.31,26l1.23,1.22-1.23,1.23Z"/><path class="cls-3" d="M25.08,40.7l1.22-1.22,1.22,1.22L26.3,41.93Z"/><path class="cls-3" d="M45.36,28.84l1.22-1.22,1.22,1.22-1.22,1.23Z"/><path class="cls-3" d="M24.47,49.88l1.22-1.22,1.22,1.22-1.22,1.23Z"/><path class="cls-4" d="M34.09,40.09l1.22,2.12a4.06,4.06,0,0,1-.66,4.88A3.83,3.83,0,0,0,39.44,53l6.35-4.11a16.42,16.42,0,0,0,4.84-4.84l4.11-6.35a3.83,3.83,0,0,0-5.92-4.79,4,4,0,0,1-4.87.65l-2.13-1.21a5.67,5.67,0,0,0-7.73,7.73Z"/><path class="cls-5" d="M38.05,39.46a.87.87,0,0,1-.87-.86V36a.87.87,0,0,1,.87-.87h2.6a.87.87,0,0,1,0,1.74H38.92V38.6A.87.87,0,0,1,38.05,39.46Z"/><circle class="cls-6" cx="36" cy="36" r="36"/></g></g></svg>