<svg xmlns="http://www.w3.org/2000/svg" viewBox="0 0 72 72"><defs><style>.cls-1{fill:#725d57;}.cls-2{fill:#53433f;}.cls-3{fill:#fff261;}.cls-4{fill:#ffda2d;}.cls-5{fill:#ffe6b3;}.cls-6{fill:#fff7cc;}.cls-7{fill:#b9dd39;}.cls-8{fill:#90cc1c;}.cls-9{fill:#ff641a;}.cls-10{fill:#f03800;}.cls-11{fill:#ff9100;}.cls-12{fill:none;}</style></defs><title>paellia</title><g id="レイヤー_2" data-name="レイヤー 2"><g id="レイヤー_1-2" data-name="レイヤー 1"><path class="cls-1" d="M18.88,24.32l-4.46-4.46,2.72-2.72,2.72-2.72,4.46,4.46-1.81,1.81L19.86,18,18,19.86l2.65,2.65Z"/><path class="cls-2" d="M52.14,57.58l-4.46-4.46,1.81-1.81L52.14,54,54,52.14l-2.65-2.65,1.81-1.81,4.46,4.46-2.72,2.72Z"/><path class="cls-1" d="M36,14.11A21.89,21.89,0,1,0,57.89,36,22,22,0,0,0,36,14.11Z"/><path class="cls-2" d="M57.89,36A22,22,0,0,1,36,57.89V14.11A22,22,0,0,1,57.89,36Z"/><path class="cls-3" d="M36,19.33A16.67,16.67,0,1,0,52.67,36,16.7,16.7,0,0,0,36,19.33Z"/><path class="cls-4" d="M52.67,36A16.7,16.7,0,0,1,36,52.67V19.33A16.7,16.7,0,0,1,52.67,36Z"/><path class="cls-5" d="M45,32.15h2.56v2.57H45Z"/><path class="cls-6" d="M24.46,34.72H27v2.56H24.46Z"/><path class="cls-6" d="M27,42.41h2.57V45H27Z"/><path class="cls-7" d="M36,25a6.29,6.29,0,0,0-2.57-.54A6.42,6.42,0,0,0,27,30.87v1.28H39.85V30.87A6.42,6.42,0,0,0,36,25Z"/><path class="cls-8" d="M39.85,30.87A6.42,6.42,0,0,0,36,25v7.15h3.85Z"/><path class="cls-9" d="M39.18,34.72,36,41l-.72,1.41.72,0A1.29,1.29,0,0,1,36,45H32.15v2.56h6.42a6.43,6.43,0,0,0,.61-12.82Z"/><path class="cls-10" d="M45,41.13a6.44,6.44,0,0,0-5.8-6.41L36,41v1.43A1.29,1.29,0,0,1,36,45v2.56h2.57A6.41,6.41,0,0,0,45,41.13Z"/><path class="cls-11" d="M39.18,34.72H29.59s0,1.77,0,2a6.46,6.46,0,0,0,5.67,5.67,5.75,5.75,0,0,0,.72-.15,5.15,5.15,0,0,0,3.85-5,5,5,0,0,0-.67-2.56Z"/><path class="cls-9" d="M39.85,37.28a5,5,0,0,0-.67-2.56H36v7.52A5.15,5.15,0,0,0,39.85,37.28Z"/><circle class="cls-12" cx="36" cy="36" r="36"/></g></g></svg>