<svg xmlns="http://www.w3.org/2000/svg" viewBox="0 0 72 72"><defs><style>.cls-1{fill:#e68783;}.cls-2{fill:#f5a9a2;}.cls-3{fill:#f0a09c;}.cls-4{fill:#75462e;}.cls-5{fill:none;}</style></defs><title>pig</title><g id="レイヤー_2" data-name="レイヤー 2"><g id="レイヤー_1-2" data-name="レイヤー 1"><path class="cls-1" d="M18.34,27.53l-2.71-.85c-2-.95-2.55-2.72-2.55-5.09h3.73a6.2,6.2,0,0,1,3.9,1.7L22.41,25l-1.7,2.55Z"/><path class="cls-2" d="M58.75,38.3a20.91,20.91,0,0,0,.94-6.08v-.46a11,11,0,0,0-11-11H29.07a11.88,11.88,0,0,0-10.73,6.78l-3,6.25a5.37,5.37,0,0,1-4.84,3.07v4.23l10.85,1.55a1.2,1.2,0,0,1,1,1.18v7.44H25.8l1.39-7a1.19,1.19,0,0,1,1.4-.93l.24.08a22.17,22.17,0,0,0,8.83,1.87c8.47,0,11.86-3.39,11.86-3.39l.27-.27c.19.13.39.26.6.38A16.32,16.32,0,0,1,54,44.67l.66.65L51.94,50a.85.85,0,0,0,.32,1.15.78.78,0,0,0,.42.11h2.78l4.23-5.93a8.5,8.5,0,0,1-1.2-6A9,9,0,0,1,58.75,38.3Z"/><path class="cls-3" d="M58.75,38.3a20.91,20.91,0,0,0,.94-6.08v-.46a11,11,0,0,0-4.81-9.1C49,36.11,31.76,41,21.61,42.71a1.19,1.19,0,0,1,.8,1.1v7.44H25.8l1.39-7a1.19,1.19,0,0,1,1.4-.93l.24.08a22.17,22.17,0,0,0,8.83,1.87c8.47,0,11.86-3.39,11.86-3.39l.27-.27c.19.13.39.26.6.38A16.32,16.32,0,0,1,54,44.67l.66.65L51.94,50a.85.85,0,0,0,.32,1.15.78.78,0,0,0,.42.11h2.78l4.23-5.93a8.5,8.5,0,0,1-1.2-6A9,9,0,0,1,58.75,38.3Z"/><rect class="cls-4" x="19.02" y="34.31" width="1.69" height="1.69"/><path class="cls-1" d="M26.68,31.21a7.16,7.16,0,0,1-4.33-1.35,5.62,5.62,0,0,1-.53-.46.85.85,0,0,1,0-1.2h0l2.66-2.69a7.57,7.57,0,0,1,5.25-2.25.85.85,0,0,1,0,1.69,5.86,5.86,0,0,0-4.06,1.75l-2,2A6.44,6.44,0,0,0,30.88,28a.85.85,0,1,1,1.17,1.23A7.93,7.93,0,0,1,26.68,31.21Z"/><path class="cls-1" d="M58,34.31a2.54,2.54,0,0,1-2.54-2.55h0V30.07a.85.85,0,1,0-1.7,0v.85a.85.85,0,0,1-1.69,0v-.85a2.54,2.54,0,1,1,5.08,0v1.69a.85.85,0,1,0,1.7,0,.85.85,0,0,1,1.69,0A2.55,2.55,0,0,1,58,34.31Z"/><path class="cls-1" d="M54,45.51a.86.86,0,0,1-.6-.25A15.86,15.86,0,0,0,50,42.77a7.21,7.21,0,0,1-3.84-5.92.85.85,0,1,1,1.7,0,5.53,5.53,0,0,0,3,4.45,17.47,17.47,0,0,1,3.74,2.76.85.85,0,0,1,0,1.2A.84.84,0,0,1,54,45.51Z"/><circle class="cls-5" cx="36" cy="36" r="36"/></g></g></svg>