<svg xmlns="http://www.w3.org/2000/svg" viewBox="0 0 72 72"><defs><style>.cls-1{fill:#fff1c6;}.cls-2{fill:#e0ab36;}.cls-3{fill:#f4c44e;}.cls-4{fill:#88c057;}.cls-5{fill:#659c35;}.cls-6{fill:#cd6e61;}.cls-7{fill:#d79c8c;}.cls-8{fill:none;}</style></defs><title>pizza</title><g id="レイヤー_2" data-name="レイヤー 2"><g id="レイヤー_1-2" data-name="レイヤー 1"><path class="cls-1" d="M57.45,29.06c-2.89-14.44-24.62-12.73-34.3-11.21a3.5,3.5,0,0,0-2.94,3.21L19.05,35.82c-1.13.65-4.18,2.78-3.14,6.45.33,1.18.81,1.72,1.33,1.85a1.15,1.15,0,0,1,.94,1.26,62.64,62.64,0,0,0-.81,7.17c-.05,2.94,3.42,2.57,3.42,2.57s4.82-.33,2-4.28c-1.53-2.19-1.4-3.78,1.16-4.78l11-4.57c-.15,1.08,0,3.43,2,3.57,1.38.09,3.74-.5,2.8-4.66a2,2,0,0,1,0-.9L55.36,33A3.53,3.53,0,0,0,57.45,29.06Z"/><path class="cls-2" d="M22.41,49.29a.71.71,0,0,0-.31.26C21.46,48,22,46.85,24,46.06l11-4.57A4.39,4.39,0,0,0,35.35,44ZM56.71,34a5.05,5.05,0,0,1-2.65,2.42L40,42.17a8.26,8.26,0,0,0-.21-1.77,2,2,0,0,1,0-.9L55.36,33a3.46,3.46,0,0,0,1.81-1.74A5.5,5.5,0,0,1,56.71,34Z"/><path class="cls-3" d="M57.45,29.1c-2.89-14.44-24.62-12.73-34.3-11.21A3.5,3.5,0,0,0,20.22,21c25.58-4.32,32.23,1.9,35.6,9.27A2.59,2.59,0,0,1,55.47,33,3.52,3.52,0,0,0,57.45,29.1Z"/><path class="cls-2" d="M24.69,17.74v2.59l1.5-.18V17.74a.88.88,0,0,0-.06-.27l-1.43.19S24.69,17.71,24.69,17.74Z"/><path class="cls-2" d="M30.68,17.18v2.55c.51,0,1-.06,1.5-.08V17.18a.78.78,0,0,0,0-.21l-1.43.08A.61.61,0,0,0,30.68,17.18Z"/><path class="cls-2" d="M35.93,17.18v2.41c.51,0,1,0,1.5.05V17.18a.79.79,0,0,0,0-.22c-.47,0-.93,0-1.4,0A.75.75,0,0,0,35.93,17.18Z"/><path class="cls-2" d="M42.07,17.39s0,0,0,0L41.16,20c.52.08,1,.16,1.5.26l.81-2.33a.92.92,0,0,0,0-.29C43,17.54,42.56,17.46,42.07,17.39Z"/><path class="cls-2" d="M47.44,18.66a.48.48,0,0,0-.09.14l-.9,2.49c.48.18.94.38,1.38.58l.93-2.56a.77.77,0,0,0,0-.15C48.34,19,47.89,18.81,47.44,18.66Z"/><path class="cls-2" d="M52.31,25,54,22.55s0,0,0,0a12.51,12.51,0,0,0-1.1-1,.66.66,0,0,0-.15.14L51.19,24C51.59,24.29,52,24.63,52.31,25Z"/><path class="cls-2" d="M56.24,25.61a.61.61,0,0,0-.22.13L54.19,27.3c.28.43.54.86.79,1.3L56.85,27A12.43,12.43,0,0,0,56.24,25.61Z"/><path class="cls-4" d="M40.15,28.14a2,2,0,0,1-1.07-.3,1.92,1.92,0,0,1-.87-1.24.48.48,0,0,0-.59-.33A2,2,0,0,1,36.13,26a1.85,1.85,0,0,1-.87-1.24.43.43,0,0,0-.2-.27.48.48,0,0,0-.39-.06A.75.75,0,0,1,34.36,23a2,2,0,0,1,1.49.26,1.9,1.9,0,0,1,.88,1.24.42.42,0,0,0,.19.27.54.54,0,0,0,.4.06,2,2,0,0,1,2.36,1.5.42.42,0,0,0,.19.27.55.55,0,0,0,.4.06.74.74,0,0,1,.88.59.74.74,0,0,1-.58.88A2,2,0,0,1,40.15,28.14Z"/><path class="cls-5" d="M34.43,37.78a.75.75,0,0,1-.75-.73,1.7,1.7,0,0,1,.46-1.2,1.57,1.57,0,0,1,1.09-.48s.08-.06.08-.15a1.69,1.69,0,0,1,.42-1.15,1.56,1.56,0,0,1,1.13-.52s.09-.06.08-.14a.76.76,0,0,1,.74-.77h0a.75.75,0,0,1,.75.73,1.61,1.61,0,0,1-1.55,1.68s-.08.09-.08.14a1.62,1.62,0,0,1-1.55,1.68.15.15,0,0,0-.08.14.75.75,0,0,1-.73.77Z"/><path class="cls-5" d="M24.27,34.14a.66.66,0,0,1-.3-.07.73.73,0,0,1-.38-1A2,2,0,0,1,24.66,32a2,2,0,0,1,1.52,0,.41.41,0,0,0,.33,0,.53.53,0,0,0,.28-.29,2,2,0,0,1,2.59-1A.49.49,0,0,0,30,30.4.74.74,0,0,1,31,30a.75.75,0,0,1,.39,1,2,2,0,0,1-2.59,1.06.49.49,0,0,0-.62.29,2,2,0,0,1-1.07,1.06,1.91,1.91,0,0,1-1.52,0,.46.46,0,0,0-.33,0,.61.61,0,0,0-.28.29A.76.76,0,0,1,24.27,34.14Z"/><path class="cls-6" d="M30.46,37.22c0,2.11-2.27,3.83-5,3.83-3.22,0-4.25-.22-4.25-2.33s5.39-3.61,6.5-3.61S30.46,35.11,30.46,37.22Z"/><path class="cls-6" d="M32.2,25.06c0,2.12-2.28,3.83-5,3.83C24,28.89,23,28.67,23,26.56S28.35,23,29.45,23,32.2,23,32.2,25.06Z"/><path class="cls-6" d="M48.91,28.78c0,2.11-2.28,3.82-5,3.82-3.22,0-4.25-.21-4.25-2.32s5.39-3.61,6.5-3.61S48.91,26.67,48.91,28.78Z"/><circle class="cls-7" cx="42.3" cy="30.49" r="0.75"/><circle class="cls-7" cx="46.21" cy="28.5" r="0.75"/><circle class="cls-7" cx="45.22" cy="30.39" r="0.75"/><circle class="cls-7" cx="25.63" cy="26.91" r="0.75"/><circle class="cls-7" cx="30" cy="25.92" r="0.75"/><circle class="cls-7" cx="27.58" cy="25.17" r="0.75"/><circle class="cls-7" cx="23.94" cy="38.95" r="0.75"/><circle class="cls-7" cx="26.38" cy="37.21" r="0.75"/><circle class="cls-7" cx="27.58" cy="38.71" r="0.75"/><circle class="cls-8" cx="36" cy="36" r="36"/></g></g></svg>