<svg xmlns="http://www.w3.org/2000/svg" viewBox="0 0 72 72"><defs><style>.cls-1{fill:#d6d6d4;}.cls-2{fill:#f98500;}.cls-3{fill:#e0e0de;}.cls-4{fill:#e04343;}.cls-5{fill:#b0564c;}.cls-6{fill:#b9685f;}.cls-7{fill:#3d4d63;}.cls-8{fill:#e94f4f;}.cls-9{fill:#f26666;}.cls-10{fill:#cf3a3a;}.cls-11{fill:#ffb531;}.cls-12{fill:#f7a116;}.cls-13{fill:none;}</style></defs><title>ramen</title><g id="レイヤー_2" data-name="レイヤー 2"><g id="レイヤー_1-2" data-name="レイヤー 1"><path class="cls-1" d="M32.12,33.91c-1.29-3.12-4.45-4.79-7.06-3.71s-3.67,4.48-2.38,7.61,4.45,4.8,7.06,3.72S33.41,37,32.12,33.91Z"/><path class="cls-2" d="M31,36.34a3.06,3.06,0,1,1-3.06-3.06A3.06,3.06,0,0,1,31,36.34Z"/><path class="cls-3" d="M25.25,32.58c-2.39-2.39-5.95-2.72-7.94-.72s-1.67,5.55.72,8,5.95,2.71,8,.72S27.65,35,25.25,32.58Z"/><path class="cls-2" d="M25,36.43a3.07,3.07,0,1,1-3.07-3.06A3.06,3.06,0,0,1,25,36.43Z"/><path class="cls-4" d="M26.9,53H44.6v2.72H26.9Z"/><path class="cls-5" d="M50.05,36.34a5.79,5.79,0,1,1-5.79-5.79A5.79,5.79,0,0,1,50.05,36.34Z"/><path class="cls-6" d="M44.26,40.09A3.75,3.75,0,1,1,48,36.34,3.74,3.74,0,0,1,44.26,40.09Zm0-6.13a2.38,2.38,0,1,0,2.39,2.38A2.38,2.38,0,0,0,44.26,34Z"/><path class="cls-7" d="M50.33,29.75l5.17,4.43-8,9.31-5.18-4.43Z"/><path class="cls-8" d="M44.6,53H26.9a14.4,14.4,0,0,1-10.9-14V36.68H55.5v2.39A14.4,14.4,0,0,1,44.6,53Z"/><path class="cls-4" d="M46.65,36.68v2.39a14.41,14.41,0,0,1-10.9,14H44.6a14.4,14.4,0,0,0,10.9-14V36.68Z"/><path class="cls-9" d="M24.5,49.92a12.2,12.2,0,0,1-5.17-5.37l1.22-.6a10.87,10.87,0,0,0,4.6,4.77Z"/><path class="cls-8" d="M55.5,19H26.9v-2l28.6-.68Z"/><path class="cls-10" d="M40.8,21.35l14.7.35V19H26.9V21l3.08.07,2.71.06"/><path class="cls-11" d="M30.3,36.68v-.27c0-2.18-.68-2.18-.68-4.36s.68-2.18.68-4.36-.68-2.18-.68-4.35A6.76,6.76,0,0,1,30,21L34.76,21l.31,15.71Z"/><path class="cls-11" d="M41.19,36.68c0-.09,0-.18,0-.27,0-2.18-.68-2.18-.68-4.36s.68-2.18.68-4.36-.68-2.18-.68-4.35.68-2.18.68-4.36H33c0,2.18-.68,2.18-.68,4.36s.68,2.18.68,4.35-.68,2.18-.68,4.36.68,2.18.68,4.36a2.35,2.35,0,0,1,0,.27Z"/><path class="cls-12" d="M33.64,36.55l-1.37,0c0-.08,0-.16,0-.25a5.55,5.55,0,0,0-.31-2,7.14,7.14,0,0,1-.37-2.38A7,7,0,0,1,32,29.51a5.49,5.49,0,0,0,.31-2,5.58,5.58,0,0,0-.31-2,7.77,7.77,0,0,1,0-4.77,5.49,5.49,0,0,0,.31-2h1.36a6.85,6.85,0,0,1-.37,2.38,5.58,5.58,0,0,0-.31,2,5.49,5.49,0,0,0,.3,2,7,7,0,0,1,.37,2.39,6.89,6.89,0,0,1-.37,2.38,5.52,5.52,0,0,0-.32,2,5.72,5.72,0,0,0,.31,2,6.89,6.89,0,0,1,.37,2.38Z"/><path class="cls-12" d="M36.36,36.56l-1.36,0v-.26a5.37,5.37,0,0,0-.31-2,6.85,6.85,0,0,1-.36-2.38,6.85,6.85,0,0,1,.37-2.38,5.58,5.58,0,0,0,.31-2,5.49,5.49,0,0,0-.3-2,7,7,0,0,1-.37-2.39,6.89,6.89,0,0,1,.37-2.38,5.56,5.56,0,0,0,.32-2h1.36A7,7,0,0,1,36,21.21a5.72,5.72,0,0,0-.31,2,5.58,5.58,0,0,0,.31,2,7.74,7.74,0,0,1,0,4.76,5.58,5.58,0,0,0-.31,2,5.37,5.37,0,0,0,.31,2,6.85,6.85,0,0,1,.36,2.38Z"/><path class="cls-12" d="M41.81,36.57l-1.36,0v-.25a5.58,5.58,0,0,0-.31-2,7.74,7.74,0,0,1,0-4.76,5.58,5.58,0,0,0,.31-2,5.28,5.28,0,0,0-.31-2,6.94,6.94,0,0,1-.36-2.39,6.89,6.89,0,0,1,.37-2.38,5.51,5.51,0,0,0,.31-2h1.37a7.2,7.2,0,0,1-.38,2.39,5.49,5.49,0,0,0-.31,2,5.58,5.58,0,0,0,.31,2,6.85,6.85,0,0,1,.36,2.38,7,7,0,0,1-.37,2.39,6.51,6.51,0,0,0,0,3.94,7,7,0,0,1,.37,2.39Z"/><path class="cls-12" d="M39.08,36.56l-1.36,0c0-.08,0-.17,0-.25a5.74,5.74,0,0,0-.31-2,7.77,7.77,0,0,1,0-4.77,5.74,5.74,0,0,0,.31-2,5.49,5.49,0,0,0-.31-2,7.74,7.74,0,0,1,0-4.76,5.58,5.58,0,0,0,.31-2h1.36a6.85,6.85,0,0,1-.37,2.38,5.59,5.59,0,0,0-.32,2,5.72,5.72,0,0,0,.31,2,7,7,0,0,1,.37,2.39,7.14,7.14,0,0,1-.37,2.38,5.56,5.56,0,0,0-.32,2,5.72,5.72,0,0,0,.31,2,7.15,7.15,0,0,1,.37,2.39A2.71,2.71,0,0,1,39.08,36.56Z"/><path class="cls-11" d="M55.5,38.72H16v.35c0,.34,0,.68,0,1H55.46c0-.34,0-.68,0-1Z"/><circle class="cls-13" cx="36" cy="36" r="36"/></g></g></svg>