<svg xmlns="http://www.w3.org/2000/svg" viewBox="0 0 72 72"><defs><style>.cls-1{fill:#545c66;}.cls-2{fill:#e6e9ed;}.cls-3{fill:#da4453;}.cls-4{fill:#ed5565;}.cls-5{fill:#656d78;}.cls-6{fill:none;}</style></defs><title>shabu</title><g id="レイヤー_2" data-name="レイヤー 2"><g id="レイヤー_1-2" data-name="レイヤー 1"><path class="cls-1" d="M49.38,11.59H22.62a4.74,4.74,0,0,0-4.72,4.72V52.54a4.73,4.73,0,0,0,4.72,4.72H49.38a4.73,4.73,0,0,0,4.72-4.72V16.31A4.74,4.74,0,0,0,49.38,11.59Z"/><path class="cls-2" d="M50.18,47.42v3.15a3.32,3.32,0,0,1-3.15,0,3.32,3.32,0,0,0-3.15,0,3.32,3.32,0,0,1-3.15,0,3.32,3.32,0,0,0-3.15,0,3.32,3.32,0,0,1-3.15,0,3.32,3.32,0,0,0-3.15,0,3.32,3.32,0,0,1-3.15,0h0a3.32,3.32,0,0,0-3.15,0,3.32,3.32,0,0,1-3.15,0V47.42a3.32,3.32,0,0,0,3.15,0,3.32,3.32,0,0,1,3.15,0h0a3.32,3.32,0,0,0,3.15,0,3.32,3.32,0,0,1,3.15,0,3.32,3.32,0,0,0,3.15,0,3.32,3.32,0,0,1,3.15,0,3.32,3.32,0,0,0,3.15,0,3.32,3.32,0,0,1,3.15,0A3.32,3.32,0,0,0,50.18,47.42Z"/><path class="cls-3" d="M50.18,49.78v3.15a3.32,3.32,0,0,1-3.15,0,3.32,3.32,0,0,0-3.15,0,3.32,3.32,0,0,1-3.15,0,3.32,3.32,0,0,0-3.15,0,3.32,3.32,0,0,1-3.15,0,3.32,3.32,0,0,0-3.15,0,3.32,3.32,0,0,1-3.15,0h0a3.32,3.32,0,0,0-3.15,0,3.32,3.32,0,0,1-3.15,0V49.78a3.32,3.32,0,0,0,3.15,0,3.32,3.32,0,0,1,3.15,0h0a3.32,3.32,0,0,0,3.15,0,3.32,3.32,0,0,1,3.15,0,3.32,3.32,0,0,0,3.15,0,3.32,3.32,0,0,1,3.15,0,3.32,3.32,0,0,0,3.15,0,3.32,3.32,0,0,1,3.15,0A3.32,3.32,0,0,0,50.18,49.78Z"/><path class="cls-4" d="M50.18,45.84V49A3.32,3.32,0,0,1,47,49a3.32,3.32,0,0,0-3.15,0,3.32,3.32,0,0,1-3.15,0,3.32,3.32,0,0,0-3.15,0,3.32,3.32,0,0,1-3.15,0,3.32,3.32,0,0,0-3.15,0,3.32,3.32,0,0,1-3.15,0h0A3.32,3.32,0,0,0,25,49a3.32,3.32,0,0,1-3.15,0V45.84a3.32,3.32,0,0,0,3.15,0,3.38,3.38,0,0,1,3.15,0h0a3.32,3.32,0,0,0,3.15,0,3.38,3.38,0,0,1,3.15,0,3.32,3.32,0,0,0,3.15,0,3.38,3.38,0,0,1,3.15,0,3.32,3.32,0,0,0,3.15,0,3.38,3.38,0,0,1,3.15,0A3.32,3.32,0,0,0,50.18,45.84Z"/><path class="cls-2" d="M50.18,16.72v3.14a3.32,3.32,0,0,1-3.15,0,3.38,3.38,0,0,0-3.15,0,3.32,3.32,0,0,1-3.15,0,3.38,3.38,0,0,0-3.15,0,3.32,3.32,0,0,1-3.15,0,3.38,3.38,0,0,0-3.15,0,3.32,3.32,0,0,1-3.15,0h0a3.38,3.38,0,0,0-3.15,0,3.32,3.32,0,0,1-3.15,0V16.72a3.38,3.38,0,0,0,3.15,0,3.32,3.32,0,0,1,3.15,0h0a3.38,3.38,0,0,0,3.15,0,3.32,3.32,0,0,1,3.15,0,3.38,3.38,0,0,0,3.15,0,3.32,3.32,0,0,1,3.15,0,3.38,3.38,0,0,0,3.15,0,3.32,3.32,0,0,1,3.15,0A3.38,3.38,0,0,0,50.18,16.72Z"/><path class="cls-3" d="M50.18,19.08v3.15a3.38,3.38,0,0,1-3.15,0,3.32,3.32,0,0,0-3.15,0,3.38,3.38,0,0,1-3.15,0,3.32,3.32,0,0,0-3.15,0,3.38,3.38,0,0,1-3.15,0,3.32,3.32,0,0,0-3.15,0,3.38,3.38,0,0,1-3.15,0h0a3.32,3.32,0,0,0-3.15,0,3.38,3.38,0,0,1-3.15,0V19.08a3.38,3.38,0,0,0,3.15,0,3.32,3.32,0,0,1,3.15,0h0a3.38,3.38,0,0,0,3.15,0,3.32,3.32,0,0,1,3.15,0,3.38,3.38,0,0,0,3.15,0,3.32,3.32,0,0,1,3.15,0,3.38,3.38,0,0,0,3.15,0,3.32,3.32,0,0,1,3.15,0A3.38,3.38,0,0,0,50.18,19.08Z"/><path class="cls-4" d="M50.18,15.14v3.15a3.32,3.32,0,0,1-3.15,0,3.32,3.32,0,0,0-3.15,0,3.32,3.32,0,0,1-3.15,0,3.32,3.32,0,0,0-3.15,0,3.32,3.32,0,0,1-3.15,0,3.32,3.32,0,0,0-3.15,0,3.32,3.32,0,0,1-3.15,0h0a3.32,3.32,0,0,0-3.15,0,3.32,3.32,0,0,1-3.15,0V15.14a3.32,3.32,0,0,0,3.15,0,3.32,3.32,0,0,1,3.15,0h0a3.32,3.32,0,0,0,3.15,0,3.32,3.32,0,0,1,3.15,0,3.32,3.32,0,0,0,3.15,0,3.32,3.32,0,0,1,3.15,0,3.32,3.32,0,0,0,3.15,0,3.32,3.32,0,0,1,3.15,0A3.32,3.32,0,0,0,50.18,15.14Z"/><path class="cls-2" d="M50.18,27V30.1a3.32,3.32,0,0,1-3.15,0,3.32,3.32,0,0,0-3.15,0,3.32,3.32,0,0,1-3.15,0,3.32,3.32,0,0,0-3.15,0,3.32,3.32,0,0,1-3.15,0,3.32,3.32,0,0,0-3.15,0,3.32,3.32,0,0,1-3.15,0h0a3.32,3.32,0,0,0-3.15,0,3.32,3.32,0,0,1-3.15,0V27A3.32,3.32,0,0,0,25,27a3.32,3.32,0,0,1,3.15,0h0a3.32,3.32,0,0,0,3.15,0,3.32,3.32,0,0,1,3.15,0,3.32,3.32,0,0,0,3.15,0,3.32,3.32,0,0,1,3.15,0,3.32,3.32,0,0,0,3.15,0A3.32,3.32,0,0,1,47,27,3.32,3.32,0,0,0,50.18,27Z"/><path class="cls-3" d="M50.18,29.31v3.15a3.32,3.32,0,0,1-3.15,0,3.32,3.32,0,0,0-3.15,0,3.32,3.32,0,0,1-3.15,0,3.32,3.32,0,0,0-3.15,0,3.32,3.32,0,0,1-3.15,0,3.32,3.32,0,0,0-3.15,0,3.32,3.32,0,0,1-3.15,0h0a3.32,3.32,0,0,0-3.15,0,3.32,3.32,0,0,1-3.15,0V29.31a3.32,3.32,0,0,0,3.15,0,3.32,3.32,0,0,1,3.15,0h0a3.32,3.32,0,0,0,3.15,0,3.32,3.32,0,0,1,3.15,0,3.32,3.32,0,0,0,3.15,0,3.32,3.32,0,0,1,3.15,0,3.32,3.32,0,0,0,3.15,0,3.32,3.32,0,0,1,3.15,0A3.32,3.32,0,0,0,50.18,29.31Z"/><path class="cls-4" d="M50.18,25.37v3.15a3.32,3.32,0,0,1-3.15,0,3.32,3.32,0,0,0-3.15,0,3.32,3.32,0,0,1-3.15,0,3.32,3.32,0,0,0-3.15,0,3.32,3.32,0,0,1-3.15,0,3.32,3.32,0,0,0-3.15,0,3.32,3.32,0,0,1-3.15,0h0a3.32,3.32,0,0,0-3.15,0,3.32,3.32,0,0,1-3.15,0V25.37a3.32,3.32,0,0,0,3.15,0,3.38,3.38,0,0,1,3.15,0h0a3.32,3.32,0,0,0,3.15,0,3.38,3.38,0,0,1,3.15,0,3.32,3.32,0,0,0,3.15,0,3.38,3.38,0,0,1,3.15,0,3.32,3.32,0,0,0,3.15,0,3.38,3.38,0,0,1,3.15,0A3.32,3.32,0,0,0,50.18,25.37Z"/><path class="cls-2" d="M50.18,37.18v3.15a3.32,3.32,0,0,1-3.15,0,3.32,3.32,0,0,0-3.15,0,3.32,3.32,0,0,1-3.15,0,3.32,3.32,0,0,0-3.15,0,3.32,3.32,0,0,1-3.15,0,3.32,3.32,0,0,0-3.15,0,3.32,3.32,0,0,1-3.15,0h0a3.32,3.32,0,0,0-3.15,0,3.32,3.32,0,0,1-3.15,0V37.18a3.32,3.32,0,0,0,3.15,0,3.38,3.38,0,0,1,3.15,0h0a3.32,3.32,0,0,0,3.15,0,3.38,3.38,0,0,1,3.15,0,3.32,3.32,0,0,0,3.15,0,3.38,3.38,0,0,1,3.15,0,3.32,3.32,0,0,0,3.15,0,3.38,3.38,0,0,1,3.15,0A3.32,3.32,0,0,0,50.18,37.18Z"/><path class="cls-3" d="M50.18,39.54v3.15a3.32,3.32,0,0,1-3.15,0,3.38,3.38,0,0,0-3.15,0,3.32,3.32,0,0,1-3.15,0,3.38,3.38,0,0,0-3.15,0,3.32,3.32,0,0,1-3.15,0,3.38,3.38,0,0,0-3.15,0,3.32,3.32,0,0,1-3.15,0h0a3.38,3.38,0,0,0-3.15,0,3.32,3.32,0,0,1-3.15,0V39.54a3.32,3.32,0,0,0,3.15,0,3.38,3.38,0,0,1,3.15,0h0a3.32,3.32,0,0,0,3.15,0,3.38,3.38,0,0,1,3.15,0,3.32,3.32,0,0,0,3.15,0,3.38,3.38,0,0,1,3.15,0,3.32,3.32,0,0,0,3.15,0,3.38,3.38,0,0,1,3.15,0A3.32,3.32,0,0,0,50.18,39.54Z"/><path class="cls-4" d="M50.18,35.61v3.15a3.38,3.38,0,0,1-3.15,0,3.32,3.32,0,0,0-3.15,0,3.38,3.38,0,0,1-3.15,0,3.32,3.32,0,0,0-3.15,0,3.38,3.38,0,0,1-3.15,0,3.32,3.32,0,0,0-3.15,0,3.38,3.38,0,0,1-3.15,0h0a3.32,3.32,0,0,0-3.15,0,3.38,3.38,0,0,1-3.15,0V35.61a3.38,3.38,0,0,0,3.15,0,3.32,3.32,0,0,1,3.15,0h0a3.38,3.38,0,0,0,3.15,0,3.32,3.32,0,0,1,3.15,0,3.38,3.38,0,0,0,3.15,0,3.32,3.32,0,0,1,3.15,0,3.38,3.38,0,0,0,3.15,0,3.32,3.32,0,0,1,3.15,0A3.38,3.38,0,0,0,50.18,35.61Z"/><path class="cls-5" d="M54.1,52.54v3.15a4.74,4.74,0,0,1-4.72,4.72H22.62a4.74,4.74,0,0,1-4.72-4.72V52.54a4.73,4.73,0,0,0,4.72,4.72H49.38A4.73,4.73,0,0,0,54.1,52.54Z"/><circle class="cls-6" cx="36" cy="36" r="36"/></g></g></svg>