<svg xmlns="http://www.w3.org/2000/svg" viewBox="0 0 72 72"><defs><style>.cls-1{fill:#da922a;}.cls-2{fill:#533222;}.cls-3{fill:#744630;}.cls-4{fill:#b9b9b9;}.cls-5{fill:#746250;}.cls-6{fill:#8d7761;}.cls-7{fill:#f7ba61;}.cls-8{fill:#4a2d1e;}.cls-9{fill:#c1ac8e;}.cls-10{fill:#d9c2a0;}.cls-11{fill:#c38325;}.cls-12{fill:none;}</style></defs><title>takoyaki</title><g id="レイヤー_2" data-name="レイヤー 2"><g id="レイヤー_1-2" data-name="レイヤー 1"><path class="cls-1" d="M36,50.45a9.35,9.35,0,1,1-9.35-9.35A9.35,9.35,0,0,1,36,50.45Z"/><path class="cls-2" d="M35.26,46.79a9.35,9.35,0,0,0-17.67,1.4,5.48,5.48,0,0,0,10.28.68,1.33,1.33,0,0,1,1.86-.64,4.15,4.15,0,0,0,5.53-1.44Z"/><path class="cls-3" d="M20.7,46.2h1.7v1.7H20.7Z"/><path class="cls-3" d="M24.1,43.65h1.7v1.7H24.1Z"/><path class="cls-3" d="M27.5,44.5h1.7v1.7H27.5Z"/><path class="cls-4" d="M44.39,32.85,43.1,31.74l1.66-1.93a2.55,2.55,0,1,0-3.87-3.32l-1.66,1.93-1.29-1.1,1.66-1.94a4.25,4.25,0,1,1,6.45,5.53Z"/><path class="cls-4" d="M40,30.13l8.25-9.64,1.29,1.11L41.3,31.24Z"/><path class="cls-5" d="M50,22.31a2.57,2.57,0,0,1-2.31-1.49,2.55,2.55,0,1,1,2.51,1.48Z"/><path class="cls-6" d="M52.5,19.27a2.46,2.46,0,0,0-2-2,1.64,1.64,0,0,0,.42,3.22h.13A1.61,1.61,0,0,0,52.5,19.27Z"/><path class="cls-7" d="M30.9,22.4a.85.85,0,0,1-.85-.85A2.17,2.17,0,0,0,29.39,20a3.92,3.92,0,0,1,0-5.31,2.17,2.17,0,0,0,.66-1.59.85.85,0,0,1,1.7,0,3.8,3.8,0,0,1-1,2.65,2.26,2.26,0,0,0,0,3.19,3.8,3.8,0,0,1,1,2.65A.85.85,0,0,1,30.9,22.4Z"/><path class="cls-7" d="M36.85,22.4a.85.85,0,0,1-.85-.85A2.17,2.17,0,0,0,35.34,20a3.92,3.92,0,0,1,0-5.31A2.17,2.17,0,0,0,36,13.06a.85.85,0,0,1,1.7,0,3.8,3.8,0,0,1-1,2.65,2.26,2.26,0,0,0,0,3.19,3.8,3.8,0,0,1,1,2.65A.85.85,0,0,1,36.85,22.4Z"/><path class="cls-7" d="M42.8,22.4a.85.85,0,0,1-.85-.85A2.25,2.25,0,0,0,41.29,20a3.9,3.9,0,0,1,0-5.31A2.25,2.25,0,0,0,42,13.06a.85.85,0,0,1,1.7,0,3.85,3.85,0,0,1-1,2.65,2.26,2.26,0,0,0,0,3.19,3.85,3.85,0,0,1,1,2.65A.85.85,0,0,1,42.8,22.4Z"/><path class="cls-1" d="M54.7,50.45a9.35,9.35,0,1,1-9.35-9.35A9.35,9.35,0,0,1,54.7,50.45Z"/><path class="cls-2" d="M54,46.79a9.35,9.35,0,0,0-17.67,1.4,5.48,5.48,0,0,0,10.29.68,1.3,1.3,0,0,1,.79-.73,1.33,1.33,0,0,1,1.07.09A4.14,4.14,0,0,0,54,46.79Z"/><path class="cls-3" d="M40.25,47.9H42v1.7h-1.7Z"/><path class="cls-3" d="M42.8,45.35h1.7v1.7H42.8Z"/><path class="cls-3" d="M46.2,43.65h1.7v1.7H46.2Z"/><path class="cls-8" d="M36.38,47.88A9.34,9.34,0,0,0,45,41.11,9.32,9.32,0,0,0,36.38,47.88Z"/><path class="cls-8" d="M27,41.11a9.34,9.34,0,0,0,7.39,6.64,4.26,4.26,0,0,0,.84-1A9.33,9.33,0,0,0,27,41.11Z"/><path class="cls-1" d="M45.35,36.85A9.35,9.35,0,1,1,36,27.5,9.35,9.35,0,0,1,45.35,36.85Z"/><path class="cls-2" d="M44.6,33.2a9.33,9.33,0,0,0-17.66,1.4,5.48,5.48,0,0,0,10.28.67,1.35,1.35,0,0,1,.79-.73,1.33,1.33,0,0,1,1.07.1,4.16,4.16,0,0,0,5.53-1.44Z"/><path class="cls-3" d="M30.05,32.6h1.7v1.7h-1.7Z"/><path class="cls-3" d="M33.45,30.05h1.7v1.7h-1.7Z"/><path class="cls-3" d="M36.85,30.9h1.7v1.7h-1.7Z"/><path class="cls-9" d="M28.69,30.05a5.08,5.08,0,0,1-2-.41l.67-1.56a3.39,3.39,0,0,0,4.46-1.79l1.57.67A5.12,5.12,0,0,1,28.69,30.05Z"/><path class="cls-9" d="M19.21,43.65a5.46,5.46,0,0,1-1.27-.16l.43-1.65a3.4,3.4,0,0,0,4.14-2.44l1.64.42A5.1,5.1,0,0,1,19.21,43.65Z"/><path class="cls-10" d="M38.48,28.42a5.1,5.1,0,0,1-5-4.16L35.13,24a3.41,3.41,0,0,0,4,2.72l.31,1.67A5.84,5.84,0,0,1,38.48,28.42Z"/><path class="cls-9" d="M51.47,43.24a5.11,5.11,0,0,1-4.63-2.94l1.54-.72a3.4,3.4,0,0,0,4.52,1.64l.72,1.54A5,5,0,0,1,51.47,43.24Z"/><path class="cls-11" d="M45.47,55.11l-2.61,4.34a8.48,8.48,0,0,0,1.8.31L46.93,56Z"/><path class="cls-11" d="M41.22,56,40,58.07a9.83,9.83,0,0,0,1.47.85l1.26-2.09Z"/><path class="cls-11" d="M48.87,56,46.62,59.7A9.66,9.66,0,0,0,49,59.06l1.33-2.23Z"/><path class="cls-11" d="M36.12,41.51l-2.6,4.35a9.71,9.71,0,0,0,1.79.31l2.27-3.78Z"/><path class="cls-11" d="M31.87,42.36,30.6,44.47a8.72,8.72,0,0,0,1.48.85l1.25-2.09Z"/><path class="cls-11" d="M39.52,42.36,37.28,46.1a9.17,9.17,0,0,0,2.36-.64L41,43.24Z"/><circle class="cls-12" cx="36" cy="36" r="36"/></g></g></svg>