<svg xmlns="http://www.w3.org/2000/svg" viewBox="0 0 72 72"><defs><style>.cls-1{fill:#7a4b2e;}.cls-2{fill:#b36e44;}.cls-3{fill:#a9cf54;}.cls-4{fill:#ffe666;}.cls-5{fill:#8c5635;}.cls-6{fill:#92b83d;}.cls-7{fill:#edbf31;}.cls-8{fill:#d48250;}.cls-9{fill:none;}</style></defs><title>yakitori</title><g id="レイヤー_2" data-name="レイヤー 2"><g id="レイヤー_1-2" data-name="レイヤー 1"><path class="cls-1" d="M15,56.2h0a1.07,1.07,0,0,1,0-1.5L53.7,16a1.06,1.06,0,0,1,1.49,0h0a1.07,1.07,0,0,1,0,1.5L16.49,56.2A1.07,1.07,0,0,1,15,56.2Z"/><circle class="cls-2" cx="28.79" cy="42.41" r="7.73"/><path class="cls-3" d="M37.64,40.33l-6.78-6.78a2.52,2.52,0,0,1,0-3.54l5.41-5.4a2.49,2.49,0,0,1,3.53,0l6.79,6.78a2.5,2.5,0,0,1,0,3.53l-5.41,5.41A2.5,2.5,0,0,1,37.64,40.33Z"/><path class="cls-4" d="M47.58,32.38l-8.76-8.76a2.16,2.16,0,0,1,1-3.62L51.4,17.19a2.15,2.15,0,0,1,2,.57h0a2.15,2.15,0,0,1,.57,2L51.19,31.36A2.16,2.16,0,0,1,47.58,32.38Z"/><path class="cls-5" d="M24.87,47.87a7.73,7.73,0,0,1,4.69-13.16,7.73,7.73,0,1,0,0,15.39A7.65,7.65,0,0,1,24.87,47.87Z"/><path class="cls-6" d="M39.19,40.33l-6.78-6.78a2.5,2.5,0,0,1,0-3.54l5.41-5.4a2.34,2.34,0,0,1,1-.61,2.49,2.49,0,0,0-2.54.61L30.86,30a2.52,2.52,0,0,0,0,3.54l6.78,6.78a2.51,2.51,0,0,0,2.55.61A2.48,2.48,0,0,1,39.19,40.33Z"/><path class="cls-7" d="M49.12,32.38l-8.76-8.76a2.16,2.16,0,0,1,1-3.62l11.27-2.74a2.21,2.21,0,0,0-1.25-.07L39.83,20a2.16,2.16,0,0,0-1,3.62l8.76,8.76a2.13,2.13,0,0,0,2.29.48A2.18,2.18,0,0,1,49.12,32.38Z"/><circle class="cls-8" cx="33.35" cy="44.4" r="0.64"/><circle class="cls-8" cx="24.52" cy="42.86" r="0.64"/><circle class="cls-8" cx="28.14" cy="37.57" r="0.64"/><circle class="cls-4" cx="33.84" cy="30.44" r="0.64"/><circle class="cls-4" cx="43.84" cy="32.47" r="0.64"/><circle class="cls-4" cx="38.83" cy="35.03" r="0.64"/><circle class="cls-2" cx="42.55" cy="22.27" r="0.64"/><circle class="cls-2" cx="49.05" cy="27.2" r="0.64"/><circle class="cls-2" cx="49.7" cy="21.94" r="0.64"/><circle class="cls-9" cx="36" cy="36" r="36"/></g></g></svg>