<svg xmlns="http://www.w3.org/2000/svg" viewBox="0 0 72 72"><defs><style>.cls-1{fill:#a3603e;}.cls-2{fill:#8f5436;}.cls-3{fill:#75462e;}.cls-4{fill:none;}</style></defs><title>yakiniku</title><g id="レイヤー_2" data-name="レイヤー 2"><g id="レイヤー_1-2" data-name="レイヤー 1"><path class="cls-1" d="M55.83,21.28H27.63l.53.3-2.4-.93a4.31,4.31,0,0,0-4.3.63l-2.65-.88a4.15,4.15,0,0,0-4.4,1.76l-4.05,7.3a2.78,2.78,0,0,0,2.43,4.16h5.08a1.78,1.78,0,0,1,1.37.65L25.47,42a1.73,1.73,0,0,1,.39,1.11V56.54h3.53l2.35-11.83a1.76,1.76,0,0,1,1.72-1.39H53.19L55.83,46,54.07,56.54h3.52l3.53-11.46L59.88,42a3.49,3.49,0,0,1,0-2.62l1.24-3.09v-9.7A5.29,5.29,0,0,0,55.83,21.28Z"/><path class="cls-2" d="M25.77,42.5a1.77,1.77,0,0,1,.09.56V56.54h3.53l2.35-11.83a1.76,1.76,0,0,1,1.72-1.39H53.19L55.83,46,54.07,56.54h3.52l3.53-11.46L59.88,42a3.49,3.49,0,0,1,0-2.62l1.24-3.09v-9.7A5.31,5.31,0,0,0,60.45,24C53.07,36.27,35.21,40.88,25.77,42.5Z"/><path class="cls-2" d="M15.8,22.09a5.09,5.09,0,0,0-3.22-1.69H10c0,1.86.37,3.25,1.76,4l2.28.93Z"/><rect class="cls-3" x="16.17" y="24.81" width="1.76" height="1.76"/><path class="cls-3" d="M58.15,34.49a3.65,3.65,0,0,1-3.2-3.7v-.66a1.8,1.8,0,0,0-1.8-1.8H51.42a.88.88,0,0,1-.88-.88h0a.89.89,0,0,1,.88-.88h1.73a3.56,3.56,0,0,1,3.56,3.56v.72a1.87,1.87,0,0,0,1.49,1.87,1.77,1.77,0,0,0,2-1.47,2.45,2.45,0,0,0,0-.27V27.45a.88.88,0,0,1,.88-.88h0a.88.88,0,0,1,.88.88V31a3.53,3.53,0,0,1-3.52,3.52Z"/><path class="cls-2" d="M25,25.69H23.22a.88.88,0,0,1,0-1.76h1.7c.56-.09,1.33-.39,2.07-1.85l-1.55-.6A3.4,3.4,0,0,0,22,22a.88.88,0,0,1-1.17-1.32,5.16,5.16,0,0,1,5.2-.79l2.41.93A.87.87,0,0,1,29,21.9h0c-.9,2.32-2.17,3.56-3.9,3.78Z"/><path class="cls-2" d="M55.83,46.84a.85.85,0,0,1-.62-.26L50.59,42a6.14,6.14,0,0,1-1.81-4.36V36.27a.88.88,0,1,1,1.76,0V37.6a4.4,4.4,0,0,0,1.29,3.12l4.62,4.62a.86.86,0,0,1,0,1.24A.85.85,0,0,1,55.83,46.84Z"/><circle class="cls-4" cx="36" cy="36" r="36"/></g></g></svg>